<svg width="16" height="16" xmlns="http://www.w3.org/2000/svg" fill-opacity="context-fill-opacity" fill="context-fill">

 <g>
  <title>Layer 1</title>
  <path id="svg_1" d="m7.34115,4.70573c0.36387,0 0.65885,-0.29498 0.65885,-0.65885c0,-0.36387 -0.29498,-0.65885 -0.65885,-0.65885c-0.36387,0 -0.65885,0.29498 -0.65885,0.65885c0,0.36387 0.29498,0.65885 0.65885,0.65885zm3.29427,0c0,0.36387 -0.29498,0.65885 -0.65885,0.65885c-0.36387,0 -0.65885,-0.29498 -0.65885,-0.65885c0,-0.36387 0.29498,-0.65885 0.65885,-0.65885c0.36387,0 0.65885,0.29498 0.65885,0.65885zm1.97656,1.97656c0,0.36387 -0.29503,0.65885 -0.65885,0.65885c-0.36382,0 -0.65885,-0.29498 -0.65885,-0.65885c0,-0.36387 0.29503,-0.65885 0.65885,-0.65885c0.36382,0 0.65885,0.29498 0.65885,0.65885zm-0.65885,3.29427c0.36382,0 0.65885,-0.29498 0.65885,-0.65885c0,-0.36387 -0.29503,-0.65885 -0.65885,-0.65885c-0.36382,0 -0.65885,0.29498 -0.65885,0.65885c0,0.36387 0.29503,0.65885 0.65885,0.65885zm-0.65885,1.97656c0,0.36382 -0.29503,0.65885 -0.65885,0.65885c-0.36387,0 -0.65885,-0.29503 -0.65885,-0.65885c0,-0.36382 0.29498,-0.65885 0.65885,-0.65885c0.36382,0 0.65885,0.29503 0.65885,0.65885zm-3.29427,-11.85937c-4.3665,0 -7.90625,3.53975 -7.90625,7.90625c0,1.4555 1.17992,2.63542 2.63542,2.63542c0.93248,0 1.43021,-0.49816 1.76635,-0.83458l0.01724,-0.01725c0.32251,-0.3225 0.48266,-0.46588 0.85183,-0.46588c0.72774,0 1.31771,0.58996 1.31771,1.31771l0,1.31771c0,2.18331 1.76988,3.95312 3.95312,3.95312c1.7573,0 3.10175,-0.98354 3.97539,-2.44316c0.86376,-1.44315 1.29544,-3.3821 1.29544,-5.46309c0,-4.3665 -3.53976,-7.90625 -7.90625,-7.90625zm-6.58854,7.90625c0,-3.63875 2.9498,-6.58854 6.58854,-6.58854c3.63872,0 6.58854,2.9498 6.58854,6.58854c0,1.92164 -0.40216,3.6063 -1.10832,4.78631c-0.69628,1.16327 -1.65781,1.80223 -2.8448,1.80223c-1.4555,0 -2.63542,-1.17988 -2.63542,-2.63542l0,-1.31771c0,-1.4555 -1.17992,-2.63542 -2.63542,-2.63542c-0.93248,0 -1.43021,0.49816 -1.76635,0.83458l-0.01724,0.01725c-0.32251,0.3225 -0.48266,0.46588 -0.85183,0.46588c-0.72774,0 -1.31771,-0.58996 -1.31771,-1.31771z"/>
 </g>
</svg>